<svg width="16" height="16" viewBox="0 0 16 16" fill="none" xmlns="http://www.w3.org/2000/svg">
<path d="M9.87949 6.12034V9.87973H6.12009V6.12034H9.87949ZM11.3832 6.12034H15.1426V9.87973H11.3832V6.12034ZM9.87949 15.1429H6.12009V11.3835H9.87949V15.1429ZM11.3832 15.1429V11.3835H15.1426V14.391C15.1426 14.5904 15.0634 14.7817 14.9224 14.9227C14.7814 15.0637 14.5902 15.1429 14.3908 15.1429H11.3832ZM9.87949 0.857178V4.61658H6.12009V0.857178H9.87949ZM11.3832 0.857178H14.3908C14.5902 0.857178 14.7814 0.936393 14.9224 1.0774C15.0634 1.2184 15.1426 1.40965 15.1426 1.60906V4.61658H11.3832V0.857178ZM4.61633 6.12034V9.87973H0.856934V6.12034H4.61633ZM4.61633 15.1429H1.60881C1.4094 15.1429 1.21816 15.0637 1.07715 14.9227C0.936149 14.7817 0.856934 14.5904 0.856934 14.391V11.3835H4.61633V15.1429ZM4.61633 0.857178V4.61658H0.856934V1.60906C0.856934 1.40965 0.936149 1.2184 1.07715 1.0774C1.21816 0.936393 1.4094 0.857178 1.60881 0.857178H4.61633Z" fill="#9E9E9E" fill-opacity="0.7"/>
</svg>
