<svg width="15" height="15" viewBox="0 0 15 15" fill="none" xmlns="http://www.w3.org/2000/svg">
<path d="M8.73016 5.77378V8.64282H5.55556V5.77378H8.73016ZM10.3175 5.77378H14.2857V8.64282H10.3175V5.77378ZM8.73019 14.2857H5.55559V10.5655H8.73019V14.2857ZM10.3175 14.2857V10.5655H14.2857V13.5417C14.2857 13.739 14.2021 13.9283 14.0533 14.0678C13.9045 14.2073 13.7026 14.2857 13.4921 14.2857H10.3175ZM8.73019 0V3.72024H5.55559V0H8.73019ZM10.3175 0H13.4921C13.7026 0 13.9045 0.0783905 14.0533 0.217926C14.2021 0.357462 14.2857 0.546714 14.2857 0.744048V3.72024H10.3175V0ZM10.7143 5.77378V8.64282H0V5.77378H10.7143ZM10.3175 14.2857H0.793683C0.583194 14.2857 0.381326 14.2073 0.232487 14.0678C0.0836489 13.9283 3.24249e-05 13.739 3.24249e-05 13.5417V10.5655H10.3175V14.2857ZM11.9048 0V3.72024H3.24249e-05V0.744048C3.24249e-05 0.546714 0.0836489 0.357462 0.232487 0.217926C0.381326 0.0783905 0.583194 0 0.793683 0H11.9048Z" fill="#FF8A50"/>
</svg>
