{
    "asset" : {
        "generator" : "Khronos glTF Blender I/O v1.6.16",
        "version" : "2.0"
    },
    "scene" : 0,
    "scenes" : [
        {
            "name" : "Scene",
            "nodes" : [
                0
            ]
        }
    ],
    "nodes" : [
        {
            "mesh" : 0,
            "name" : "headhair"
        }
    ],
    "materials" : [
        {
            "doubleSided" : true,
            "name" : "FACE",
            "pbrMetallicRoughness" : {
                "metallicFactor" : 0,
                "roughnessFactor" : 0.5822784900665283
            }
        }
    ],
    "meshes" : [
        {
            "name" : "FaceBuilderHead_mesh.001",
            "primitives" : [
                {
                    "attributes" : {
                        "POSITION" : 0,
                        "NORMAL" : 1
                    },
                    "indices" : 2,
                    "material" : 0
                }
            ]
        }
    ],
    "accessors" : [
        {
            "bufferView" : 0,
            "componentType" : 5126,
            "count" : 3082,
            "max" : [
                0.8136603236198425,
                1.4682203531265259,
                1.178802728652954
            ],
            "min" : [
                -0.8317613005638123,
                -1.201102375984192,
                -0.9794518351554871
            ],
            "type" : "VEC3"
        },
        {
            "bufferView" : 1,
            "componentType" : 5126,
            "count" : 3082,
            "type" : "VEC3"
        },
        {
            "bufferView" : 2,
            "componentType" : 5123,
            "count" : 3156,
            "type" : "SCALAR"
        }
    ],
    "bufferViews" : [
        {
            "buffer" : 0,
            "byteLength" : 36984,
            "byteOffset" : 0
        },
        {
            "buffer" : 0,
            "byteLength" : 36984,
            "byteOffset" : 36984
        },
        {
            "buffer" : 0,
            "byteLength" : 6312,
            "byteOffset" : 73968
        }
    ],
    "buffers" : [
        {
            "byteLength" : 80280,
            "uri" : "data:application/octet-stream;base64,"
        }
    ]
}
